<svg xmlns="http://www.w3.org/2000/svg" xmlns:xlink="http://www.w3.org/1999/xlink" contentStyleType="text/css" height="382px" preserveAspectRatio="none" style="width:858px;height:382px;background:#FFFFFF;" version="1.1" viewBox="0 0 858 382" width="858px" zoomAndPan="magnify"><defs/><g><!--class Students--><g id="elem_Students"><rect codeLine="1" fill="#F1F1F1" height="64.2969" id="Students" rx="2.5" ry="2.5" style="stroke:#181818;stroke-width:0.5;" width="175.2695" x="7" y="15.5"/><ellipse cx="59.1821" cy="31.5" fill="#ADD1B2" rx="11" ry="11" style="stroke:#181818;stroke-width:1;"/><path d="M63.2915,37.5 L55.5728,37.5 L55.5728,25.1094 L63.2915,25.1094 L63.2915,27.2656 L58.0259,27.2656 L58.0259,29.9375 L62.7915,29.9375 L62.7915,32.0938 L58.0259,32.0938 L58.0259,35.3438 L63.2915,35.3438 L63.2915,37.5 Z " fill="#000000"/><text fill="#000000" font-family="sans-serif" font-size="14" lengthAdjust="spacing" textLength="62.4053" x="79.6821" y="36.3467">Students</text><line style="stroke:#181818;stroke-width:0.5;" x1="8" x2="181.2695" y1="47.5" y2="47.5"/><ellipse cx="18" cy="61.1484" fill="#000000" rx="3" ry="3" style="stroke:#000000;stroke-width:1;"/><text fill="#000000" font-family="sans-serif" font-size="14" lengthAdjust="spacing" textLength="149.2695" x="27" y="64.4951">student_id : INT &#171;PK&#187;</text><line style="stroke:#181818;stroke-width:0.5;" x1="8" x2="181.2695" y1="71.7969" y2="71.7969"/></g><!--class Groups--><g id="elem_Groups"><rect codeLine="5" fill="#F1F1F1" height="80.5938" id="Groups" rx="2.5" ry="2.5" style="stroke:#181818;stroke-width:0.5;" width="181.7773" x="217.5" y="7"/><ellipse cx="279.0269" cy="23" fill="#ADD1B2" rx="11" ry="11" style="stroke:#181818;stroke-width:1;"/><path d="M283.1362,29 L275.4175,29 L275.4175,16.6094 L283.1362,16.6094 L283.1362,18.7656 L277.8706,18.7656 L277.8706,21.4375 L282.6362,21.4375 L282.6362,23.5938 L277.8706,23.5938 L277.8706,26.8438 L283.1362,26.8438 L283.1362,29 Z " fill="#000000"/><text fill="#000000" font-family="sans-serif" font-size="14" lengthAdjust="spacing" textLength="50.2236" x="299.5269" y="27.8467">Groups</text><line style="stroke:#181818;stroke-width:0.5;" x1="218.5" x2="398.2773" y1="39" y2="39"/><ellipse cx="228.5" cy="52.6484" fill="#000000" rx="3" ry="3" style="stroke:#000000;stroke-width:1;"/><text fill="#000000" font-family="sans-serif" font-size="14" lengthAdjust="spacing" textLength="136.7188" x="237.5" y="55.9951">group_id : INT &#171;PK&#187;</text><line style="stroke:#181818;stroke-width:1;" x1="218.5" x2="398.2773" y1="63.2969" y2="63.2969"/><text fill="#000000" font-family="sans-serif" font-size="14" lengthAdjust="spacing" textLength="169.7773" x="223.5" y="80.292">group_name : VARCHAR</text></g><!--class Student_Group--><g id="elem_Student_Group"><rect codeLine="11" fill="#F1F1F1" height="96.8906" id="Student_Group" rx="2.5" ry="2.5" style="stroke:#181818;stroke-width:0.5;" width="198.8604" x="153" y="222"/><ellipse cx="195.8187" cy="238" fill="#ADD1B2" rx="11" ry="11" style="stroke:#181818;stroke-width:1;"/><path d="M199.9281,244 L192.2093,244 L192.2093,231.6094 L199.9281,231.6094 L199.9281,233.7656 L194.6625,233.7656 L194.6625,236.4375 L199.4281,236.4375 L199.4281,238.5938 L194.6625,238.5938 L194.6625,241.8438 L199.9281,241.8438 L199.9281,244 Z " fill="#000000"/><text fill="#000000" font-family="sans-serif" font-size="14" lengthAdjust="spacing" textLength="105.041" x="216.0006" y="242.8467">Student_Group</text><line style="stroke:#181818;stroke-width:0.5;" x1="154" x2="350.8604" y1="254" y2="254"/><ellipse cx="164" cy="267.6484" fill="#000000" rx="3" ry="3" style="stroke:#000000;stroke-width:1;"/><text fill="#000000" font-family="sans-serif" font-size="14" lengthAdjust="spacing" textLength="148.8799" x="173" y="270.9951">student_id : INT &#171;FK&#187;</text><ellipse cx="164" cy="283.9453" fill="#000000" rx="3" ry="3" style="stroke:#000000;stroke-width:1;"/><text fill="#000000" font-family="sans-serif" font-size="14" lengthAdjust="spacing" textLength="136.3291" x="173" y="287.292">group_id : INT &#171;FK&#187;</text><line style="stroke:#181818;stroke-width:1;" x1="154" x2="350.8604" y1="294.5938" y2="294.5938"/><text fill="#000000" font-family="sans-serif" font-size="14" lengthAdjust="spacing" textLength="186.8604" x="159" y="311.5889">[PK] (student_id, group_id)</text></g><!--class Schedule--><g id="elem_Schedule"><rect codeLine="18" fill="#F1F1F1" height="210.9688" id="Schedule" rx="2.5" ry="2.5" style="stroke:#181818;stroke-width:0.5;" width="188.6543" x="436" y="165"/><ellipse cx="493.9106" cy="181" fill="#ADD1B2" rx="11" ry="11" style="stroke:#181818;stroke-width:1;"/><path d="M498.02,187 L490.3013,187 L490.3013,174.6094 L498.02,174.6094 L498.02,176.7656 L492.7544,176.7656 L492.7544,179.4375 L497.52,179.4375 L497.52,181.5938 L492.7544,181.5938 L492.7544,184.8438 L498.02,184.8438 L498.02,187 Z " fill="#000000"/><text fill="#000000" font-family="sans-serif" font-size="14" lengthAdjust="spacing" textLength="64.333" x="514.4106" y="185.8467">Schedule</text><line style="stroke:#181818;stroke-width:0.5;" x1="437" x2="623.6543" y1="197" y2="197"/><ellipse cx="447" cy="210.6484" fill="#000000" rx="3" ry="3" style="stroke:#000000;stroke-width:1;"/><text fill="#000000" font-family="sans-serif" font-size="14" lengthAdjust="spacing" textLength="158.4912" x="456" y="213.9951">schedule_id : INT &#171;PK&#187;</text><line style="stroke:#181818;stroke-width:1;" x1="437" x2="623.6543" y1="221.2969" y2="221.2969"/><text fill="#000000" font-family="sans-serif" font-size="14" lengthAdjust="spacing" textLength="146.1045" x="442" y="238.292">subject_id : INT &#171;FK&#187;</text><text fill="#000000" font-family="sans-serif" font-size="14" lengthAdjust="spacing" textLength="143.6094" x="442" y="254.5889">worker_id : INT &#171;FK&#187;</text><text fill="#000000" font-family="sans-serif" font-size="14" lengthAdjust="spacing" textLength="136.3291" x="442" y="270.8857">group_id : INT &#171;FK&#187;</text><text fill="#000000" font-family="sans-serif" font-size="14" lengthAdjust="spacing" textLength="118.6309" x="442" y="287.1826">room : VARCHAR</text><text fill="#000000" font-family="sans-serif" font-size="14" lengthAdjust="spacing" textLength="156.2148" x="442" y="303.4795">start_time : DATETIME</text><text fill="#000000" font-family="sans-serif" font-size="14" lengthAdjust="spacing" textLength="149.9805" x="442" y="319.7764">end_time : DATETIME</text><text fill="#000000" font-family="sans-serif" font-size="14" lengthAdjust="spacing" textLength="176.6543" x="442" y="336.0732">lesson_status : VARCHAR</text><text fill="#000000" font-family="sans-serif" font-size="14" lengthAdjust="spacing" textLength="116.5801" x="442" y="352.3701">color : VARCHAR</text><text fill="#000000" font-family="sans-serif" font-size="14" lengthAdjust="spacing" textLength="4.4502" x="442" y="368.667">&#160;</text></g><!--class Subjects--><g id="elem_Subjects"><rect codeLine="32" fill="#F1F1F1" height="80.5938" id="Subjects" rx="2.5" ry="2.5" style="stroke:#181818;stroke-width:0.5;" width="191.5527" x="434.5" y="7"/><ellipse cx="496.2114" cy="23" fill="#ADD1B2" rx="11" ry="11" style="stroke:#181818;stroke-width:1;"/><path d="M500.3208,29 L492.6021,29 L492.6021,16.6094 L500.3208,16.6094 L500.3208,18.7656 L495.0552,18.7656 L495.0552,21.4375 L499.8208,21.4375 L499.8208,23.5938 L495.0552,23.5938 L495.0552,26.8438 L500.3208,26.8438 L500.3208,29 Z " fill="#000000"/><text fill="#000000" font-family="sans-serif" font-size="14" lengthAdjust="spacing" textLength="59.6299" x="516.7114" y="27.8467">Subjects</text><line style="stroke:#181818;stroke-width:0.5;" x1="435.5" x2="625.0527" y1="39" y2="39"/><ellipse cx="445.5" cy="52.6484" fill="#000000" rx="3" ry="3" style="stroke:#000000;stroke-width:1;"/><text fill="#000000" font-family="sans-serif" font-size="14" lengthAdjust="spacing" textLength="146.4941" x="454.5" y="55.9951">subject_id : INT &#171;PK&#187;</text><line style="stroke:#181818;stroke-width:1;" x1="435.5" x2="625.0527" y1="63.2969" y2="63.2969"/><text fill="#000000" font-family="sans-serif" font-size="14" lengthAdjust="spacing" textLength="179.5527" x="440.5" y="80.292">subject_name : VARCHAR</text></g><!--class Workers--><g id="elem_Workers"><rect codeLine="38" fill="#F1F1F1" height="80.5938" id="Workers" rx="2.5" ry="2.5" style="stroke:#181818;stroke-width:0.5;" width="189.0576" x="662" y="7"/><ellipse cx="723.3115" cy="23" fill="#ADD1B2" rx="11" ry="11" style="stroke:#181818;stroke-width:1;"/><path d="M727.4209,29 L719.7021,29 L719.7021,16.6094 L727.4209,16.6094 L727.4209,18.7656 L722.1553,18.7656 L722.1553,21.4375 L726.9209,21.4375 L726.9209,23.5938 L722.1553,23.5938 L722.1553,26.8438 L727.4209,26.8438 L727.4209,29 Z " fill="#000000"/><text fill="#000000" font-family="sans-serif" font-size="14" lengthAdjust="spacing" textLength="57.9346" x="743.8115" y="27.8467">Workers</text><line style="stroke:#181818;stroke-width:0.5;" x1="663" x2="850.0576" y1="39" y2="39"/><ellipse cx="673" cy="52.6484" fill="#000000" rx="3" ry="3" style="stroke:#000000;stroke-width:1;"/><text fill="#000000" font-family="sans-serif" font-size="14" lengthAdjust="spacing" textLength="143.999" x="682" y="55.9951">worker_id : INT &#171;PK&#187;</text><line style="stroke:#181818;stroke-width:1;" x1="663" x2="850.0576" y1="63.2969" y2="63.2969"/><text fill="#000000" font-family="sans-serif" font-size="14" lengthAdjust="spacing" textLength="177.0576" x="668" y="80.292">worker_name : VARCHAR</text></g><!--link Students to Student_Group--><g id="link_Students_Student_Group"><path codeLine="45" d="M121.4536,86.2073 C147.9136,123.2073 177.1716,164.1372 207.9416,207.1772 " fill="none" id="Students-Student_Group" style="stroke:#181818;stroke-width:1;"/><line style="stroke:#181818;stroke-width:1;" x1="115.8732" x2="122.3804" y1="85.2804" y2="80.6268"/><line style="stroke:#181818;stroke-width:1;" x1="117.6182" x2="124.1255" y1="87.7206" y2="83.0671"/><line style="stroke:#181818;stroke-width:1;" x1="121.4536" x2="116.8" y1="86.2073" y2="79.7"/><line style="stroke:#181818;stroke-width:1;" x1="213.7574" x2="223.2909" y1="215.3121" y2="218.3305"/><line style="stroke:#181818;stroke-width:1;" x1="213.7574" x2="213.5291" y1="215.3121" y2="225.3095"/><line style="stroke:#181818;stroke-width:1;" x1="213.7574" x2="218.41" y1="215.3121" y2="221.82"/><ellipse cx="210.2679" cy="210.4311" fill="none" rx="4" ry="4" style="stroke:#181818;stroke-width:1;"/><text fill="#000000" font-family="sans-serif" font-size="13" lengthAdjust="spacing" textLength="70.6304" x="156.5" y="131.0669">belongs_to</text></g><!--link Groups to Student_Group--><g id="link_Groups_Student_Group"><path codeLine="46" d="M296.5254,95.765 C287.0254,133.265 279.109,164.4609 268.989,204.4209 " fill="none" id="Groups-Student_Group" style="stroke:#181818;stroke-width:1;"/><line style="stroke:#181818;stroke-width:1;" x1="293.6302" x2="301.3852" y1="90.9052" y2="92.8698"/><line style="stroke:#181818;stroke-width:1;" x1="292.8935" x2="300.6485" y1="93.8133" y2="95.7779"/><line style="stroke:#181818;stroke-width:1;" x1="296.5254" x2="298.49" y1="95.765" y2="88.01"/><line style="stroke:#181818;stroke-width:1;" x1="266.534" x2="270.3864" y1="214.1148" y2="223.343"/><line style="stroke:#181818;stroke-width:1;" x1="266.534" x2="258.7536" y1="214.1148" y2="220.397"/><line style="stroke:#181818;stroke-width:1;" x1="266.534" x2="264.57" y1="214.1148" y2="221.87"/><ellipse cx="268.007" cy="208.2985" fill="none" rx="4" ry="4" style="stroke:#181818;stroke-width:1;"/><text fill="#000000" font-family="sans-serif" font-size="13" lengthAdjust="spacing" textLength="66.041" x="291.5" y="131.0669">has_many</text></g><!--link Groups to Schedule--><g id="link_Groups_Schedule"><path codeLine="47" d="M353.8596,93.6541 C378.2996,117.9841 392.3251,131.9391 423.0651,162.5491 " fill="none" id="Groups-Schedule" style="stroke:#181818;stroke-width:1;"/><line style="stroke:#181818;stroke-width:1;" x1="348.2028" x2="353.8468" y1="93.6668" y2="87.9972"/><line style="stroke:#181818;stroke-width:1;" x1="350.3289" x2="355.9729" y1="95.7834" y2="90.1138"/><line style="stroke:#181818;stroke-width:1;" x1="353.8596" x2="348.19" y1="93.6541" y2="88.01"/><line style="stroke:#181818;stroke-width:1;" x1="430.1512" x2="440.0536" y1="169.6051" y2="170.9984"/><line style="stroke:#181818;stroke-width:1;" x1="430.1512" x2="431.5864" y1="169.6051" y2="179.5016"/><line style="stroke:#181818;stroke-width:1;" x1="430.1512" x2="435.82" y1="169.6051" y2="175.25"/><ellipse cx="425.8996" cy="165.3715" fill="none" rx="4" ry="4" style="stroke:#181818;stroke-width:1;"/><text fill="#000000" font-family="sans-serif" font-size="13" lengthAdjust="spacing" textLength="66.041" x="394.5" y="131.0669">has_many</text></g><!--link Subjects to Schedule--><g id="link_Subjects_Schedule"><path codeLine="48" d="M530.5,96.01 C530.5,117.61 530.5,119.49 530.5,146.89 " fill="none" id="Subjects-Schedule" style="stroke:#181818;stroke-width:1;"/><line style="stroke:#181818;stroke-width:1;" x1="526.5" x2="534.5" y1="92.01" y2="92.01"/><line style="stroke:#181818;stroke-width:1;" x1="526.5" x2="534.5" y1="95.01" y2="95.01"/><line style="stroke:#181818;stroke-width:1;" x1="530.5" x2="530.5" y1="96.01" y2="88.01"/><line style="stroke:#181818;stroke-width:1;" x1="530.5" x2="536.5" y1="156.89" y2="164.89"/><line style="stroke:#181818;stroke-width:1;" x1="530.5" x2="524.5" y1="156.89" y2="164.89"/><line style="stroke:#181818;stroke-width:1;" x1="530.5" x2="530.5" y1="156.89" y2="164.89"/><ellipse cx="530.5" cy="150.89" fill="none" rx="4" ry="4" style="stroke:#181818;stroke-width:1;"/><text fill="#000000" font-family="sans-serif" font-size="13" lengthAdjust="spacing" textLength="78.127" x="531.5" y="131.0669">is_taught_in</text></g><!--link Workers to Schedule--><g id="link_Workers_Schedule"><path codeLine="49" d="M710.3801,93.6031 C685.1101,118.3131 670.0412,133.0569 638.3212,164.0669 " fill="none" id="Workers-Schedule" style="stroke:#181818;stroke-width:1;"/><line style="stroke:#181818;stroke-width:1;" x1="710.4435" x2="716.0366" y1="87.9466" y2="93.6665"/><line style="stroke:#181818;stroke-width:1;" x1="708.2985" x2="713.8917" y1="90.044" y2="95.7639"/><line style="stroke:#181818;stroke-width:1;" x1="710.3801" x2="716.1" y1="93.6031" y2="88.01"/><line style="stroke:#181818;stroke-width:1;" x1="631.1705" x2="629.6444" y1="171.0575" y2="180.9404"/><line style="stroke:#181818;stroke-width:1;" x1="631.1705" x2="621.2556" y1="171.0575" y2="172.3596"/><line style="stroke:#181818;stroke-width:1;" x1="631.1705" x2="625.45" y1="171.0575" y2="176.65"/><ellipse cx="635.4609" cy="166.8632" fill="none" rx="4" ry="4" style="stroke:#181818;stroke-width:1;"/><text fill="#000000" font-family="sans-serif" font-size="13" lengthAdjust="spacing" textLength="107.6563" x="683.5" y="131.0669">is_conducted_by</text></g><!--SRC=[VLBBQiCm4BphAqGkVH3_G0W1qoPj22t1DUsX525RY-tMbe8bKKpIVwzZoO_u4L-itPsTdHqMk4fKWMTlIZFWIiumbRWEy17Xyhl7qYH8ml02Rrzzl5pkTwiL-aC8BC5JBlJ1j9jdqnoTmq7hkUOuJlKt24upA37lhlVmx7fTRgk7LCHTXIPpJUQcdZMYOzFNyRdVVU7RbcNUzDnTo0bZO3e5eyG6hGYRkBgnrC4tXEDAVqN-0_beQNg5N8YiOrurGz5S4PLKhZww_jhVlgoh2d0scaz1Ii59sQYqxB658XLvBtTXYjd87f0DMbE6-qvwCdq77vKpPeHzDnE6hWq6MCYG_mPxa5AL22xZv21HS_-da-E8O-_Q5ZY0LF184YMGlVK9O4mboIWl-h3wPZg8nh8X9YadKHt5fNqSrNkFmaB1cGuLC18K_m00]--></g></svg>